<?xml version="1.0" standalone="no"?>
<!DOCTYPE svg PUBLIC "-//W3C//DTD SVG 20010904//EN"
 "http://www.w3.org/TR/2001/REC-SVG-20010904/DTD/svg10.dtd">
<svg version="1.0" xmlns="http://www.w3.org/2000/svg"
 width="700.000000pt" height="700.000000pt" viewBox="0 0 700.000000 700.000000"
 preserveAspectRatio="xMidYMid meet">
<metadata>
Created by potrace 1.11, written by Peter Selinger 2001-2013
</metadata>
<g transform="translate(0.000000,700.000000) scale(0.100000,-0.100000)"
fill="#000000" stroke="none">
<path d="M2647 5494 c-1 -1 -30 -4 -64 -7 -73 -6 -174 -49 -229 -99 -48 -43
-96 -119 -120 -188 -18 -53 -18 -121 -18 -1695 l0 -1640 23 -65 c29 -83 79
-150 148 -200 112 -80 38 -75 1128 -75 912 0 973 1 1020 18 235 85 354 331
273 564 -53 153 -199 271 -361 289 -29 4 -333 7 -677 8 -549 1 -625 3 -625 16
1 22 16 180 20 215 6 42 13 149 21 295 3 69 8 127 11 130 2 3 228 5 501 5 529
1 559 3 652 51 98 50 189 159 221 267 46 151 2 316 -116 432 -70 70 -144 109
-235 123 -36 5 -280 10 -543 10 -263 0 -480 2 -482 4 -2 1 -6 62 -9 133 -6
128 -12 211 -21 290 -2 22 -7 76 -11 120 -3 44 -8 88 -10 98 -3 16 34 17 644
18 356 1 656 3 668 4 57 6 179 58 211 90 8 8 22 20 31 27 22 16 64 73 85 115
36 68 50 129 49 208 -1 225 -174 413 -395 432 -51 4 -1785 11 -1790 7z"/>
</g>
</svg>
