<?xml version="1.0" encoding="UTF-8" standalone="no"?>
<!-- Created with Inkscape (http://www.inkscape.org/) -->

<svg
   xmlns:dc="http://purl.org/dc/elements/1.1/"
   xmlns:cc="http://creativecommons.org/ns#"
   xmlns:rdf="http://www.w3.org/1999/02/22-rdf-syntax-ns#"
   xmlns:svg="http://www.w3.org/2000/svg"
   xmlns="http://www.w3.org/2000/svg"
   xmlns:xlink="http://www.w3.org/1999/xlink"
   xmlns:sodipodi="http://sodipodi.sourceforge.net/DTD/sodipodi-0.dtd"
   xmlns:inkscape="http://www.inkscape.org/namespaces/inkscape"
   width="260mm"
   height="260mm"
   viewBox="0 0 921.25984 921.25984"
   id="svg2"
   version="1.1"
   inkscape:version="0.91 r13725"
   sodipodi:docname="Mogimik.svg"
   inkscape:export-xdpi="90"
   inkscape:export-ydpi="90">
  <defs
     id="defs4">
    <linearGradient
       id="linearGradient5593"
       inkscape:collect="always">
      <stop
         id="stop4243"
         offset="0"
         style="stop-color:#000000;stop-opacity:1;" />
      <stop
         id="stop4245"
         offset="1"
         style="stop-color:#000000;stop-opacity:0;" />
    </linearGradient>
    <linearGradient
       inkscape:collect="always"
       xlink:href="#linearGradient5593"
       id="linearGradient5599"
       x1="292.49423"
       y1="883.72428"
       x2="909.90555"
       y2="883.72428"
       gradientUnits="userSpaceOnUse" />
    <linearGradient
       inkscape:collect="always"
       xlink:href="#linearGradient5593"
       id="linearGradient5601"
       x1="238.86093"
       y1="568.28721"
       x2="560.51346"
       y2="568.28721"
       gradientUnits="userSpaceOnUse" />
    <linearGradient
       inkscape:collect="always"
       xlink:href="#linearGradient5593"
       id="linearGradient5603"
       x1="19.677965"
       y1="258.7898"
       x2="456.53601"
       y2="258.7898"
       gradientUnits="userSpaceOnUse" />
    <linearGradient
       inkscape:collect="always"
       xlink:href="#linearGradient5593"
       id="linearGradient5611"
       x1="-5.6634078"
       y1="609.32153"
       x2="971.09937"
       y2="609.32153"
       gradientUnits="userSpaceOnUse" />
    <linearGradient
       inkscape:collect="always"
       xlink:href="#linearGradient5593"
       id="linearGradient5635"
       x1="0"
       y1="792.36218"
       x2="1788.5714"
       y2="-150.49495"
       gradientUnits="userSpaceOnUse" />
  </defs>
  <sodipodi:namedview
     id="base"
     pagecolor="#ffffff"
     bordercolor="#666666"
     borderopacity="1.0"
     inkscape:pageopacity="0.0"
     inkscape:pageshadow="2"
     inkscape:zoom="0.175"
     inkscape:cx="-1082.9492"
     inkscape:cy="387.31395"
     inkscape:document-units="px"
     inkscape:current-layer="layer1"
     showgrid="false"
     units="mm"
     inkscape:window-width="1366"
     inkscape:window-height="670"
     inkscape:window-x="0"
     inkscape:window-y="1"
     inkscape:window-maximized="1" />
  <metadata
     id="metadata7">
    <rdf:RDF>
      <cc:Work
         rdf:about="">
        <dc:format>image/svg+xml</dc:format>
        <dc:type
           rdf:resource="http://purl.org/dc/dcmitype/StillImage" />
        <dc:title />
      </cc:Work>
    </rdf:RDF>
  </metadata>
  <g
     inkscape:label="Layer 1"
     inkscape:groupmode="layer"
     id="layer1"
     transform="translate(0,-131.10236)">
    <rect
       style="opacity:1;fill:#ffffff;fill-opacity:1;stroke:none;stroke-width:2.29999995;stroke-linecap:butt;stroke-linejoin:miter;stroke-miterlimit:4;stroke-dasharray:none;stroke-opacity:1"
       id="rect4249"
       width="1348.5714"
       height="1297.1428"
       x="-85.714287"
       y="35.219349" />
    <rect
       style="opacity:1;fill:url(#linearGradient5635);fill-opacity:1.0;stroke:url(#linearGradient5611);stroke-width:5.21165514;stroke-linecap:butt;stroke-linejoin:miter;stroke-miterlimit:4;stroke-dasharray:none;stroke-opacity:1"
       id="rect4136"
       width="971.55115"
       height="971.55115"
       x="-3.0575802"
       y="123.54596" />
    <text
       xml:space="preserve"
       style="font-style:normal;font-weight:normal;font-size:40px;line-height:125%;font-family:sans-serif;letter-spacing:0px;word-spacing:0px;fill:#000000;fill-opacity:1;stroke:none;stroke-width:1px;stroke-linecap:butt;stroke-linejoin:miter;stroke-opacity:1"
       x="167.68532"
       y="551.32654"
       id="text4314"
       sodipodi:linespacing="125%"><tspan
         sodipodi:role="line"
         id="tspan4316"
         x="167.68532"
         y="551.32654"
         style="font-style:normal;font-variant:normal;font-weight:normal;font-stretch:normal;font-family:BEYNO;-inkscape-font-specification:BEYNO" /></text>
    <path
       style="fill:#000000;fill-rule:evenodd;stroke:none;stroke-width:1px;stroke-linecap:butt;stroke-linejoin:miter;stroke-opacity:1;fill-opacity:1"
       d="M -2.0203051,125.04215 682.86312,1270.5552 1092.9851,1048.3216 Z"
       id="path4330"
       inkscape:connector-curvature="0" />
    <path
       style="fill:#ff0000;fill-opacity:1;fill-rule:evenodd;stroke:none;stroke-width:1px;stroke-linecap:butt;stroke-linejoin:miter;stroke-opacity:1"
       d="M 88.893406,231.1081 567.80639,1032.1219 854.58917,876.72235 Z"
       id="path4330-0"
       inkscape:connector-curvature="0" />
    <path
       style="fill:#ff8000;fill-opacity:1;fill-rule:evenodd;stroke:none;stroke-width:1px;stroke-linecap:butt;stroke-linejoin:miter;stroke-opacity:1"
       d="M 152.8664,313.28388 631.77938,1114.2977 918.56216,958.89809 Z"
       id="path4330-0-5"
       inkscape:connector-curvature="0" />
    <path
       style="fill:#ffff00;fill-opacity:1;fill-rule:evenodd;stroke:none;stroke-width:1px;stroke-linecap:butt;stroke-linejoin:miter;stroke-opacity:1"
       d="m 215.16243,387.19533 478.913,801.01377 286.7828,-155.3996 z"
       id="path4330-0-5-4"
       inkscape:connector-curvature="0" />
    <path
       style="fill:#00ff00;fill-opacity:1;fill-rule:evenodd;stroke:none;stroke-width:1px;stroke-linecap:butt;stroke-linejoin:miter;stroke-opacity:1"
       d="M 258.66682,441.79635 737.57981,1242.8101 1024.3626,1087.4105 Z"
       id="path4330-0-5-4-4"
       inkscape:connector-curvature="0" />
    <path
       style="fill:#0000ff;fill-opacity:1;fill-rule:evenodd;stroke:none;stroke-width:1px;stroke-linecap:butt;stroke-linejoin:miter;stroke-opacity:1"
       d="M 306.07615,502.35276 784.98917,1303.3664 1071.7719,1147.9668 Z"
       id="path4330-0-5-4-4-0"
       inkscape:connector-curvature="0" />
    <path
       style="fill:#8000ff;fill-opacity:1;fill-rule:evenodd;stroke:none;stroke-width:1px;stroke-linecap:butt;stroke-linejoin:miter;stroke-opacity:1"
       d="M 354.49968,559.58472 833.4127,1360.5984 1120.1954,1205.1988 Z"
       id="path4330-0-5-4-4-0-0"
       inkscape:connector-curvature="0" />
    <path
       style="fill:#ff00ff;fill-opacity:1;fill-rule:evenodd;stroke:none;stroke-width:1px;stroke-linecap:butt;stroke-linejoin:miter;stroke-opacity:1"
       d="m 409.11173,627.6117 478.91298,801.0137 286.78269,-155.3996 z"
       id="path4330-0-5-4-4-0-0-3"
       inkscape:connector-curvature="0" />
    <g
       style="font-style:normal;font-weight:normal;font-size:212.55628967px;line-height:125%;font-family:sans-serif;letter-spacing:0px;word-spacing:0px;fill:#ffffff;fill-opacity:1;stroke:none;stroke-width:2.29999995;stroke-linecap:butt;stroke-linejoin:miter;stroke-miterlimit:4;stroke-dasharray:none;stroke-opacity:1"
       id="text4318">
      <path
         d="m 394.3268,587.41727 q 0,-3.61345 1.913,-5.3139 1.91301,-1.70045 4.8888,-1.70045 l 10.2027,0 q 3.18834,0 5.10135,1.913 1.91301,1.70045 1.91301,5.10135 l 0,61.42877 q 0,4.03857 -2.76324,5.95158 l -1.913,1.27534 q -13.81616,10.2027 -30.18299,15.72916 -16.15428,5.31391 -35.07179,5.31391 -14.87894,0 -28.90766,-3.82602 -13.81616,-3.82601 -25.93187,-10.84037 -11.90315,-7.22691 -21.89329,-17.0045 -9.77759,-9.99014 -17.00451,-22.10585 -7.01435,-12.11571 -10.84037,-25.93187 -3.82601,-14.02872 -3.82601,-28.90766 0,-15.09149 3.82601,-28.90765 3.82602,-14.02872 10.84037,-25.93187 7.22692,-12.11571 17.00451,-22.10585 9.99014,-9.99015 22.10585,-17.00451 12.11571,-7.22691 25.93187,-11.05292 14.02871,-4.03857 29.12021,-4.03857 10.62781,0 20.83052,2.12556 10.2027,2.12556 20.19284,5.95158 3.4009,1.48789 8.07714,3.82601 4.67624,2.33812 8.92737,5.10135 4.25112,2.55068 7.22691,5.52646 2.97579,2.76324 2.97579,5.52647 0,2.55067 -1.27534,4.46368 l 0,-0.21256 -4.46368,7.65203 q -2.12556,3.4009 -5.73902,3.4009 -2.76323,0 -5.52646,-2.12556 -10.62782,-7.65203 -23.16864,-11.90315 -12.54082,-4.25113 -26.35698,-4.25113 -12.32826,0 -23.59375,3.18834 -11.26548,3.18835 -20.83051,8.92737 -9.56504,5.73902 -17.42962,13.81616 -7.65203,7.86458 -13.17849,17.21706 -5.52646,9.35247 -8.50225,19.76773 -2.97579,10.41526 -2.97579,21.25563 0,17.42962 6.58925,32.94622 6.8018,15.30406 18.06728,26.7821 11.47804,11.26548 26.56954,17.85473 15.30405,6.37668 32.096,6.37668 12.1157,0 23.59374,-3.82601 11.47804,-3.82601 23.16864,-9.77759 l 0.21256,-51.65118 q 0,0 0,0 z"
         style="font-style:normal;font-variant:normal;font-weight:normal;font-stretch:normal;font-family:BEYNO;-inkscape-font-specification:BEYNO;fill:#ffffff;fill-opacity:1;stroke:none;stroke-width:2.29999995;stroke-miterlimit:4;stroke-dasharray:none;stroke-opacity:1"
         id="path4165" />
      <path
         d="m 533.85671,464.13463 q 0,-2.12557 1.27534,-3.40091 1.27533,-1.27533 3.4009,-1.27533 l 15.51661,0 q 2.12556,0 3.61345,1.27533 1.70045,1.27534 1.70045,3.40091 l 0,208.30516 q 0,2.55067 -1.48789,3.61346 -1.27534,1.06278 -3.82601,1.06278 l -15.51661,0 q -4.67624,0 -4.67624,-4.67624 l 0,-208.30516 z"
         style="font-style:normal;font-variant:normal;font-weight:normal;font-stretch:normal;font-family:BEYNO;-inkscape-font-specification:BEYNO;fill:#ffffff;fill-opacity:1;stroke:none;stroke-width:2.29999995;stroke-miterlimit:4;stroke-dasharray:none;stroke-opacity:1"
         id="path4167" />
    </g>
    <g
       style="font-style:normal;font-weight:normal;font-size:212.55628967px;line-height:125%;font-family:sans-serif;letter-spacing:0px;word-spacing:0px;fill:#ffffff;fill-opacity:1;stroke:none;stroke-width:2.29999995;stroke-linecap:butt;stroke-linejoin:miter;stroke-miterlimit:4;stroke-dasharray:none;stroke-opacity:1"
       id="text4322">
      <path
         d="M 414.58876,871.82113 390.5699,814.00582 345.50796,926.23554 q -5.52646,13.6036 -10.2027,25.71931 l -14.45382,36.55968 0,-0.42511 q -0.85023,2.12556 -2.55068,3.4009 -1.48789,1.06278 -3.61346,1.06278 l -15.94172,0 q -2.33812,0 -3.82601,-0.63767 -1.27534,-0.85022 -1.27534,-2.55067 0,-0.85023 0.21256,-1.70045 l 0.63767,-1.91301 85.23507,-206.81727 q 0,-0.42511 0.42511,-0.85023 l -0.42511,0.63767 1.70045,-2.55067 q 1.06278,-1.27534 4.46368,-1.27534 l 9.77759,0 q 3.4009,0 4.25112,1.27534 l 1.4879,2.33812 q 0,0.21255 0.21256,0.42511 l 0.42511,0.63767 -0.21256,-0.21256 25.71931,62.06644 -12.96593,30.39555 z m 101.81446,116.6934 q -2.12556,-5.73902 -5.95157,-15.30405 l -8.50226,-21.25563 -32.30855,-80.13372 -24.01886,-57.81531 -45.06194,112.22972 q -5.52646,13.6036 -10.2027,25.71931 l -14.45383,36.55968 0,-0.42511 q -0.85022,2.12556 -2.55067,3.4009 -1.4879,1.06278 -3.61346,1.06278 l -15.94172,0 q -2.33812,0 -3.82601,-0.63767 -1.27534,-0.85022 -1.27534,-2.55067 0,-0.85023 0.21256,-1.70045 l 0.63766,-1.91301 85.23508,-206.81727 q 0,-0.42511 0.42511,-0.85023 l -0.42511,0.63767 1.70045,-2.55067 q 1.06278,-1.27534 4.46368,-1.27534 l 9.77759,0 q 3.4009,0 4.25112,1.27534 l 1.4879,2.33812 q 0,0.21255 0.21255,0.42511 l 0.42512,0.63767 -0.21256,-0.21256 85.87274,206.39216 0.42511,0.85022 q 0.21256,1.27534 0.21256,2.76324 0,3.18834 -5.31391,3.18834 l -15.51661,0 q -2.55067,0 -4.03857,-1.06278 -1.48789,-1.27534 -1.913,-2.12556 -0.21256,-0.85023 -0.21256,-0.85023 z"
         style="font-style:normal;font-variant:normal;font-weight:normal;font-stretch:normal;font-family:BEYNO;-inkscape-font-specification:BEYNO;fill:#ffffff;fill-opacity:1;stroke:none;stroke-width:2.29999995;stroke-miterlimit:4;stroke-dasharray:none;stroke-opacity:1"
         id="path4170" />
      <path
         d="m 606.62007,779.5717 q 0,-2.12556 1.27534,-3.4009 1.27534,-1.27534 3.4009,-1.27534 l 15.51661,0 q 2.12557,0 3.61346,1.27534 1.70045,1.27534 1.70045,3.4009 l 0,208.30516 q 0,2.55068 -1.48789,3.61346 -1.27534,1.06278 -3.82602,1.06278 l -15.51661,0 q -4.67624,0 -4.67624,-4.67624 l 0,-208.30516 z"
         style="font-style:normal;font-variant:normal;font-weight:normal;font-stretch:normal;font-family:BEYNO;-inkscape-font-specification:BEYNO;fill:#ffffff;fill-opacity:1;stroke:none;stroke-width:2.29999995;stroke-miterlimit:4;stroke-dasharray:none;stroke-opacity:1"
         id="path4172" />
      <path
         d="m 834.58339,910.08126 q 0,0 0,0 l 72.69425,76.73282 q 1.06278,1.27534 1.06278,2.33812 0,1.06278 -0.85023,1.70045 -0.63767,0.63767 -1.70045,1.06278 -1.06278,0.42511 -2.12556,0.42511 l -1.91301,0.21256 -20.61796,0 q -1.913,0 -3.61345,-1.27534 -1.70045,-1.27533 -3.82602,-3.61345 l -56.11486,-59.51577 -27.84487,29.33277 0,27.84488 q 0,7.22691 -7.43947,7.22691 l -10.41526,0 q -7.22691,0 -7.01436,-7.22691 l 0,-203.20382 q -0.21255,-2.97578 1.4879,-5.10135 1.913,-2.12556 5.52646,-2.12556 l 10.62781,0 q 2.97579,0 5.10136,2.12556 2.12556,1.91301 2.12556,5.10135 l 0,86.29786 83.95973,-87.99831 q 1.91301,-2.33812 3.61346,-3.61345 1.91301,-1.27534 3.82601,-1.27534 l 20.61796,0 1.91301,0.21256 q 1.06278,0 2.12556,0.42511 1.06278,0.42511 1.70045,1.06278 0.85023,0.63767 0.85023,1.70045 0,1.06278 -1.06278,2.33812 l -117.54363,123.28265 0,16.79194 80.55883,-85.23507 q 1.91301,-2.12556 3.61346,-3.4009 1.91301,-1.27534 3.82601,-1.27534 l 20.61796,0 1.91301,0 q 1.06278,0.21256 2.12556,0.63767 1.06278,0.21256 1.70045,1.06278 0.85023,0.63767 0.85023,1.70045 0,1.06279 -1.06278,2.33812 l -34.64668,36.34713 q -30.18299,31.88344 -34.64667,36.55968 z"
         style="font-style:normal;font-variant:normal;font-weight:normal;font-stretch:normal;font-family:BEYNO;-inkscape-font-specification:BEYNO;fill:#ffffff;fill-opacity:1;stroke:none;stroke-width:2.29999995;stroke-miterlimit:4;stroke-dasharray:none;stroke-opacity:1"
         id="path4174" />
    </g>
    <g
       style="font-style:normal;font-weight:normal;font-size:212.55628967px;line-height:125%;font-family:sans-serif;letter-spacing:0px;word-spacing:0px;fill:#fffffe;fill-opacity:1;stroke:none;stroke-width:2.29999995;stroke-linecap:butt;stroke-linejoin:miter;stroke-miterlimit:4;stroke-dasharray:none;stroke-opacity:1"
       id="text4326">
      <path
         d="M 141.77249,246.88665 117.75363,189.07134 72.6917,301.30106 q -5.526464,13.6036 -10.202702,25.71931 l -14.453828,36.55968 0,-0.42511 q -0.850225,2.12556 -2.550675,3.4009 -1.487894,1.06278 -3.613457,1.06278 l -15.941722,0 q -2.338119,0 -3.826013,-0.63767 -1.275338,-0.85022 -1.275338,-2.55067 0,-0.85023 0.212556,-1.70045 l 0.637669,-1.91301 85.23507,-206.81727 q 0,-0.42511 0.42511,-0.85022 l -0.42511,0.63766 1.70045,-2.55067 q 1.06278,-1.27534 4.46368,-1.27534 l 9.77759,0 q 3.4009,0 4.25113,1.27534 l 1.48789,2.33812 q 0,0.21255 0.21256,0.42511 l 0.42511,0.63767 -0.21255,-0.21256 25.71931,62.06644 -12.96594,30.39555 z m 101.81447,116.6934 q -2.12557,-5.73902 -5.95158,-15.30405 l -8.50225,-21.25563 -32.30856,-80.13372 -24.01886,-57.81531 -45.06193,112.22972 q -5.52646,13.6036 -10.2027,25.71931 l -14.45383,36.55968 0,-0.42511 q -0.85023,2.12556 -2.55068,3.4009 -1.48789,1.06278 -3.613453,1.06278 l -15.941722,0 q -2.338119,0 -3.826013,-0.63767 -1.275338,-0.85022 -1.275338,-2.55067 0,-0.85023 0.212556,-1.70045 l 0.637669,-1.91301 85.235071,-206.81727 q 0,-0.42511 0.42511,-0.85022 l -0.42511,0.63766 1.70045,-2.55067 q 1.06278,-1.27534 4.46368,-1.27534 l 9.77759,0 q 3.4009,0 4.25113,1.27534 l 1.48789,2.33812 q 0,0.21255 0.21256,0.42511 l 0.42511,0.63767 -0.21255,-0.21256 85.87274,206.39216 0.42511,0.85023 q 0.21256,1.27533 0.21256,2.76323 0,3.18834 -5.31391,3.18834 l -15.51661,0 q -2.55068,0 -4.03857,-1.06278 -1.48789,-1.27534 -1.91301,-2.12556 -0.21255,-0.85023 -0.21255,-0.85023 z"
         style="font-style:normal;font-variant:normal;font-weight:normal;font-stretch:normal;font-family:BEYNO;-inkscape-font-specification:'BEYNO Bold';fill:#fffffe;fill-opacity:1;stroke:none;stroke-width:2.29999995;stroke-miterlimit:4;stroke-dasharray:none;stroke-opacity:1"
         id="path4160" />
      <path
         d="m 346.55719,367.61862 q -46.12472,-1.27534 -76.94538,-31.88344 -30.60811,-30.82066 -31.67089,-76.94538 1.06278,-46.12471 31.67089,-76.73282 30.82066,-30.82066 76.94538,-32.096 46.33727,1.27534 76.94537,32.096 30.82067,30.60811 31.88345,76.73282 -1.06278,46.12472 -31.88345,76.94538 -30.6081,30.6081 -76.94537,31.88344 0,0 0,0 z m 0,-193.63878 q -35.92202,1.06278 -59.94088,25.08164 -23.8063,23.80631 -24.65653,59.72832 0.85023,35.92201 24.65653,59.94088 24.01886,24.01886 59.94088,24.86908 36.13457,-0.85022 59.94087,-24.86908 24.01886,-24.01887 24.86909,-59.94088 -0.85023,-35.92201 -24.86909,-59.72832 -23.8063,-24.01886 -59.94087,-25.08164 0,0 0,0 z"
         style="font-style:normal;font-variant:normal;font-weight:normal;font-stretch:normal;font-family:BEYNO;-inkscape-font-specification:'BEYNO Bold';fill:#fffffe;fill-opacity:1;stroke:none;stroke-width:2.29999995;stroke-miterlimit:4;stroke-dasharray:none;stroke-opacity:1"
         id="path4162" />
    </g>
  </g>
</svg>
