<?xml version="1.0" encoding="UTF-8" standalone="no"?>
<!-- Created with Inkscape (http://www.inkscape.org/) -->

<svg
   xmlns:dc="http://purl.org/dc/elements/1.1/"
   xmlns:cc="http://creativecommons.org/ns#"
   xmlns:rdf="http://www.w3.org/1999/02/22-rdf-syntax-ns#"
   xmlns:svg="http://www.w3.org/2000/svg"
   xmlns="http://www.w3.org/2000/svg"
   xmlns:sodipodi="http://sodipodi.sourceforge.net/DTD/sodipodi-0.dtd"
   xmlns:inkscape="http://www.inkscape.org/namespaces/inkscape"
   width="260mm"
   height="260mm"
   viewBox="0 0 921.25984 921.25984"
   id="svg2"
   version="1.1"
   inkscape:version="0.91 r13725"
   sodipodi:docname="Skillscoder11.svg"
   inkscape:export-xdpi="90"
   inkscape:export-ydpi="90">
  <defs
     id="defs4" />
  <sodipodi:namedview
     id="base"
     pagecolor="#ffffff"
     bordercolor="#666666"
     borderopacity="1.0"
     inkscape:pageopacity="0.0"
     inkscape:pageshadow="2"
     inkscape:zoom="0.35"
     inkscape:cx="-23.669806"
     inkscape:cy="343.37246"
     inkscape:document-units="px"
     inkscape:current-layer="layer1"
     showgrid="false"
     units="mm"
     width="260mm"
     inkscape:snap-smooth-nodes="false"
     inkscape:object-nodes="false"
     inkscape:snap-intersection-paths="false"
     inkscape:object-paths="false"
     inkscape:snap-midpoints="false"
     inkscape:snap-nodes="false"
     inkscape:snap-grids="true"
     inkscape:window-width="1280"
     inkscape:window-height="972"
     inkscape:window-x="-8"
     inkscape:window-y="-8"
     inkscape:window-maximized="1" />
  <metadata
     id="metadata7">
    <rdf:RDF>
      <cc:Work
         rdf:about="">
        <dc:format>image/svg+xml</dc:format>
        <dc:type
           rdf:resource="http://purl.org/dc/dcmitype/StillImage" />
        <dc:title />
      </cc:Work>
    </rdf:RDF>
  </metadata>
  <g
     inkscape:label="Layer 1"
     inkscape:groupmode="layer"
     id="layer1"
     transform="translate(0,-131.10236)">
    <path
       style="fill:#ffffff;fill-rule:evenodd;stroke:none;stroke-width:1px;stroke-linecap:butt;stroke-linejoin:miter;stroke-opacity:1;fill-opacity:1"
       d="m -134.28571,-24.78065 65.714281,1217.14285 1088.571429,0 22.8571,-1365.71428 z"
       id="path4143"
       inkscape:connector-curvature="0" />
    <g
       id="g4254"
       transform="matrix(0.77666228,0,0,0.77666228,-11.681296,68.766771)">
      <path
         sodipodi:nodetypes="ccccccccccccccc"
         inkscape:connector-curvature="0"
         id="path4238"
         d="m 316.4721,225.09174 859.3455,667.66634 -380.79736,283.51922 c -66.57628,-61.8188 0.77003,-0.095 -65.6901,-61.2857 L 127.67396,566.54845 260.89023,596.05044 314.814,543.33605 336.23745,506.04865 349.32213,416.38274 201.81479,313.8602 153.05084,289.23846 146.20212,188.99374 203.89276,159.604 l 77.23001,7.72979 z"
         style="fill:#0392ce;fill-opacity:1;fill-rule:evenodd;stroke:none;stroke-width:1px;stroke-linecap:butt;stroke-linejoin:miter;stroke-opacity:1" />
      <path
         sodipodi:nodetypes="cccccccccc"
         inkscape:connector-curvature="0"
         id="path4244"
         d="M 541.85919,499.81769 1142.8571,978.07647 C 859.91667,1181.1115 1142.857,977.75872 860,1180.9337 L 345.58389,725.37851 312.85714,636.6479 l 4.28572,-89.28571 40,-47.14286 61.42857,-27.14286 49.28571,2.85714 z"
         style="fill:#fabc02;fill-opacity:1;fill-rule:evenodd;stroke:none;stroke-width:1px;stroke-linecap:butt;stroke-linejoin:miter;stroke-opacity:1" />
      <g
         id="text4140"
         style="font-style:normal;font-variant:normal;font-weight:100;font-stretch:normal;font-size:623.09619141px;line-height:125%;font-family:Moonbeam;-inkscape-font-specification:'Moonbeam Thin';letter-spacing:0px;word-spacing:0px;fill:#fabc02;fill-opacity:1;stroke:none;stroke-width:1px;stroke-linecap:butt;stroke-linejoin:miter;stroke-opacity:1">
        <path
           id="path4228"
           d="m 316.4721,225.09174 -24.30075,4.98477 q -6.23096,-34.27029 -23.67765,-49.2246 -16.8236,-15.5774 -46.73222,-15.5774 -31.7779,0 -49.2246,14.95431 -16.82359,14.33121 -21.18527,50.47079 -0.62309,3.73857 -1.24619,7.47715 0,4.98477 0,6.85406 0,34.89339 54.20937,61.68652 89.10276,44.23983 100.94158,53.58627 54.83247,42.37055 54.83247,113.40351 0,54.20937 -41.74745,90.97205 -41.74744,36.76267 -99.07229,36.76267 -52.34008,0 -91.59514,-34.89339 -39.255061,-34.89338 -39.255061,-87.23346 l 0,-78.51012 24.300751,0 0,78.51012 q 0,41.12435 31.15481,69.78677 31.77791,28.03933 75.39464,28.03933 47.35531,0 81.6256,-29.90862 34.89339,-30.53171 34.89339,-74.77154 0.62309,-3.73858 0.62309,-7.47716 0,-4.98476 0,-7.47715 0,-52.34008 -54.20937,-84.74108 -50.47079,-25.54695 -100.31848,-51.71699 -54.83247,-34.89338 -54.83247,-92.21823 0,-41.74745 28.03933,-64.17891 28.03933,-23.05456 66.67129,-23.05456 37.38578,0 62.93272,21.80837 26.17004,21.18527 31.7779,61.68652 z"
           inkscape:connector-curvature="0" />
      </g>
      <g
         transform="translate(-68.487322,134.62946)"
         id="text4140-3-6"
         style="font-style:normal;font-variant:normal;font-weight:100;font-stretch:normal;font-size:623.09619141px;line-height:125%;font-family:Moonbeam;-inkscape-font-specification:'Moonbeam Thin';letter-spacing:0px;word-spacing:0px;fill:#0392ce;fill-opacity:1;stroke:none;stroke-width:1px;stroke-linecap:butt;stroke-linejoin:miter;stroke-opacity:1">
        <path
           inkscape:connector-curvature="0"
           id="path4234"
           d="m 578.56466,636.65127 -13.08502,-20.56218 49.2246,-30.53171 0,457.97572 -24.30075,0 0,-413.73589 -11.83883,6.85406 z" />
        <path
           inkscape:connector-curvature="0"
           id="path4236"
           d="m 683.95664,636.65127 -13.08502,-20.56218 49.2246,-30.53171 0,457.97572 -24.30075,0 0,-413.73589 -11.83883,6.85406 z" />
      </g>
      <g
         id="text4140-3"
         style="font-style:normal;font-variant:normal;font-weight:100;font-stretch:normal;font-size:623.09619141px;line-height:125%;font-family:Moonbeam;-inkscape-font-specification:'Moonbeam Thin';letter-spacing:0px;word-spacing:0px;fill:#a7194b;fill-opacity:1;stroke:none;stroke-width:1px;stroke-linecap:butt;stroke-linejoin:miter;stroke-opacity:1">
        <path
           id="path4231"
           d="m 541.85919,499.81769 -16.2005,17.44669 q -20.56217,-19.31598 -40.50125,-26.17004 -19.31598,-7.47715 -49.8477,-7.47715 -47.9784,0 -81.0025,38.00886 -33.0241,38.00887 -33.0241,89.10276 0,8.72335 0.6231,13.08502 4.36167,50.47079 39.87815,83.49489 35.51649,33.0241 85.98728,33.0241 49.2246,0 83.49489,-36.76268 34.27029,-36.76267 34.27029,-87.23346 l 24.30075,0 q 0,60.44033 -41.12435,104.68016 -40.50125,43.61673 -100.31849,43.61673 -59.81723,0 -102.81087,-39.25506 -42.99363,-39.25506 -47.9784,-99.0723 -0.6231,-3.73857 -0.6231,-7.47715 0,-4.98477 0,-6.85406 0,-59.81723 39.25506,-105.92635 39.87816,-46.73221 97.8261,-46.73221 33.6472,0 59.19414,9.34644 25.54694,8.72334 48.6015,31.15481 z"
           inkscape:connector-curvature="0" />
      </g>
    </g>
  </g>
</svg>
