<svg version="1" xmlns="http://www.w3.org/2000/svg" width="1600" height="1600" viewBox="0 0 1200.000000 1200.000000"><path d="M441.5 258.6c-1.1.2-4.5.9-7.5 1.5-7.4 1.4-22.3 8.8-28.9 14.2-11 9.2-20 23.3-23.8 37.7-1.7 6.1-1.8 22.7-1.8 287 0 315.4-.8 284.7 7.7 302 3.3 6.9 5.8 10.2 13.2 17.6 7.4 7.4 10.7 9.9 17.6 13.2 16.7 8.2 7.7 7.6 126 8 109.8.3 123.2 0 141.7-3.8 62.3-12.9 114-59 134.2-119.6 7.5-22.3 8.5-29.6 8.5-57.4 0-21.7-.2-25.7-2.2-34.9-10.8-49.1-37.3-88.7-77.1-115.1-5.4-3.6-11.3-7.3-13.1-8.3l-3.2-1.7 8.3-5.1c20-12 41.6-32 55.2-50.9 13.5-19 25-45.8 29.8-69.6 3.1-15.4 3.8-43.5 1.5-59.4-7.6-51.9-35.3-96.1-78.5-125.1-26.2-17.7-55.7-27.7-87.2-29.9-13.4-.9-215.9-1.3-220.4-.4z"/></svg>