<svg xmlns="http://www.w3.org/2000/svg" height="720" width="720"><path d="M0 0h720v720H0z" fill="#fff"/><path d="M270.22 155.078c-23.504 0-42.425 18.922-42.425 42.426v48.332h224.322a45.379-45.379 0 0 0 45.38-45.379 45.379-45.379 0 0 0-45.38-45.379H270.221z" fill="#cea9ff"/><path d="M227.795 472.916v48.332c0 23.504 18.921 42.426 42.426 42.426h181.896a45.379-45.379 0 0 0 45.38-45.38 45.379-45.379 0 0 0-45.38-45.378H227.795z" fill="#b346ff"/><path d="M227.795 313.996v90.758h199.004a45.379-45.379 0 0 0 45.377-45.379 45.379-45.379 0 0 0-45.377-45.379H227.795z" fill="#c178ff"/><path d="M270.145 155.078c-23.47.041-42.35 18.947-42.35 42.426v323.742c0 23.504 18.921 42.428 42.426 42.428h34.035c33.517-90.758 33.517-317.838 0-408.596h-34.111z" fill="#545454"/></svg>