<?xml version="1.0" encoding="UTF-8" standalone="no"?>
<svg
   xmlns:dc="http://purl.org/dc/elements/1.1/"
   xmlns:cc="http://creativecommons.org/ns#"
   xmlns:rdf="http://www.w3.org/1999/02/22-rdf-syntax-ns#"
   xmlns:svg="http://www.w3.org/2000/svg"
   xmlns="http://www.w3.org/2000/svg"
   xmlns:xlink="http://www.w3.org/1999/xlink"
   version="1.1"
   id="svg2"
   viewBox="0 0 662.00001 300"
   height="300"
   width="662">
  <defs
     id="defs4">
    <linearGradient
       x1="100%"
       y1="100%"
       x2="38.1041974%"
       y2="38.1041974%"
       id="pink-theme">
      <stop
         stop-color="#FFC83E"
         offset="0%"
         id="stop6" />
      <stop
         stop-color="#FA709A"
         offset="100%"
         id="stop8" />
    </linearGradient>
    <linearGradient
       gradientTransform="matrix(0.662,0,0,0.29999998,-4.0825488e-6,736.65351)"
       xlink:href="#pink-theme"
       id="linearGradient4157"
       x1="1.1368684e-13"
       y1="552.36218"
       x2="1000"
       y2="625.19684"
       gradientUnits="userSpaceOnUse" />
  </defs>
  <metadata
     id="metadata7">
    <rdf:RDF>
      <cc:Work
         rdf:about="">
        <dc:format>image/svg+xml</dc:format>
        <dc:type
           rdf:resource="http://purl.org/dc/dcmitype/StillImage" />
        <dc:title></dc:title>
      </cc:Work>
    </rdf:RDF>
  </metadata>
  <g
     transform="translate(0,-752.36216)"
     id="layer1">
    <rect
       y="752.36218"
       x="0"
       height="299.99997"
       width="662"
       id="rect4136"
       style="opacity:1;fill:url(#linearGradient4157);fill-opacity:1;fill-rule:nonzero;stroke:none;stroke-width:1.99600792;stroke-linecap:round;stroke-linejoin:round;stroke-miterlimit:4;stroke-dasharray:none;stroke-opacity:1" />
    <g
       transform="matrix(0.7763285,0,0,0.7763285,142.19246,201.83272)"
       id="g4255">
      <path
         id="path4156"
         style="font-style:normal;font-variant:normal;font-weight:normal;font-stretch:normal;font-size:medium;line-height:125%;font-family:Blackout;-inkscape-font-specification:Blackout;text-align:start;letter-spacing:0px;word-spacing:0px;text-anchor:start;fill:#ffffff;fill-opacity:1;stroke:none;stroke-width:20.81347275;stroke-linecap:round;stroke-linejoin:round;stroke-miterlimit:4;stroke-dasharray:none;stroke-opacity:1"
         d="m 106.45584,843.9838 51.24946,65.25718 -51.24946,61.84116 33.8247,0 51.24944,-62.18276 -51.24944,-64.91558 -33.8247,0 z m 54.40025,72.98199 c 0.38602,-0.0148 0.76842,0.0185 1.14767,0.10057 l -0.15639,3.47749 c -0.58041,-0.13876 -1.16434,-0.10593 -1.75086,0.0986 -0.59623,0.19633 -1.0866,0.52271 -1.47067,0.98016 -0.286,0.34066 -0.47919,0.71006 -0.57988,1.10673 -0.10071,0.39667 -0.11443,0.79857 -0.0428,1.20725 0.0718,0.40871 0.22841,0.81471 0.47102,1.21751 0.23286,0.39464 0.5485,0.75959 0.94753,1.09463 0.40881,0.34318 0.82856,0.59571 1.25753,0.75674 0.42902,0.16103 0.85099,0.24119 1.26593,0.24108 0.41336,-0.0185 0.80999,-0.11552 1.19142,-0.2932 0.37167,-0.18577 0.70943,-0.45899 1.01179,-0.81911 0.69459,-0.82734 0.96651,-1.84373 0.8163,-3.0484 l -1.5079,1.79647 -2.04407,-1.71642 3.57897,-4.26311 5.51879,4.63358 -1.97333,2.35029 -0.861,-0.72323 c 0.004,1.26268 -0.40203,2.37615 -1.21097,3.33973 -0.56384,0.6716 -1.22025,1.21556 -1.96869,1.63264 -0.75812,0.4089 -1.55715,0.64984 -2.39866,0.72323 -0.84155,0.0734 -1.70816,-0.0316 -2.59885,-0.31461 -0.89064,-0.28313 -1.75947,-0.78022 -2.60625,-1.49116 -0.72998,-0.61287 -1.29158,-1.31649 -1.6857,-2.112 -0.40386,-0.80369 -0.63456,-1.63639 -0.69161,-2.49736 -0.0668,-0.86917 0.038,-1.73486 0.31464,-2.5979 0.27496,-0.88093 0.72697,-1.69669 1.35618,-2.44615 0.39224,-0.46719 0.82164,-0.86983 1.28825,-1.2082 0.45686,-0.34654 0.9388,-0.61384 1.44553,-0.80236 0.50517,-0.20643 1.02147,-0.33685 1.54887,-0.39186 0.12952,-0.0167 0.25857,-0.0265 0.3872,-0.0317 z m -9.20385,11.21439 c 0.88045,-0.0406 1.73953,0.0826 2.57648,0.37045 0.84512,0.27809 1.59813,0.69534 2.26,1.25102 0.68132,0.572 1.22806,1.25477 1.64008,2.0487 0.40229,0.78576 0.65117,1.61694 0.7456,2.4927 0.0845,0.86762 0,1.74997 -0.256,2.64722 -0.24732,0.88755 -0.69386,1.71542 -1.33942,2.48435 -0.6619,0.7884 -1.41336,1.3776 -2.25441,1.76667 -0.84106,0.38908 -1.69739,0.60734 -2.56813,0.65623 -0.88045,0.0406 -1.74346,-0.0775 -2.58858,-0.35556 -0.84512,-0.27812 -1.60331,-0.69929 -2.2749,-1.26312 -0.68134,-0.57201 -1.22804,-1.25477 -1.64008,-2.0487 -0.41202,-0.79395 -0.65995,-1.62513 -0.74464,-2.49273 -0.0863,-0.8855 -9.1e-4,-1.76784 0.25597,-2.64722 0.25551,-0.89726 0.70598,-1.73029 1.35154,-2.49921 0.66188,-0.78839 1.41337,-1.37668 2.25442,-1.76576 0.84105,-0.38908 1.7016,-0.60433 2.58207,-0.64504 z m -0.0195,3.49239 c -0.41648,-0.0185 -0.82467,0.0628 -1.22398,0.242 -0.40087,0.16121 -0.76893,0.44147 -1.10396,0.84054 -0.34319,0.40878 -0.56329,0.8297 -0.66087,1.26218 -0.0894,0.42274 -0.0844,0.84221 0.0148,1.25751 0.0896,0.40713 0.25903,0.79766 0.50823,1.17282 0.24765,0.35725 0.54172,0.67925 0.88241,0.96526 0.35038,0.29417 0.73222,0.53155 1.14489,0.71207 0.40291,0.17234 0.81217,0.26703 1.22867,0.28482 0.4165,0.0185 0.825,-0.0538 1.22587,-0.21501 0.40905,-0.17104 0.78496,-0.46058 1.12814,-0.86939 0.34323,-0.4088 0.56425,-0.82969 0.66179,-1.26217 0.088,-0.44064 0.0829,-0.86013 -0.0148,-1.25751 -0.0995,-0.4153 -0.27785,-0.80555 -0.53522,-1.17097 -0.24921,-0.37515 -0.54453,-0.70531 -0.88521,-0.99131 -0.3504,-0.29419 -0.7271,-0.52764 -1.13,-0.69997 -0.41262,-0.18051 -0.82584,-0.27098 -1.24077,-0.27087 z m -13.37758,9.23456 7.88302,6.61898 3.94756,-4.70152 2.48155,2.0841 -6.33695,7.54794 -10.3655,-8.70215 2.39032,-2.84735 z m -3.49798,5.88552 c 0.41493,-1.1e-4 0.82784,0.0812 1.23892,0.24387 0.40953,0.14469 0.77955,0.35605 1.11046,0.63386 0.48664,0.4086 0.84726,0.92738 1.08253,1.55633 0.2337,0.61104 0.2543,1.25919 0.0613,1.94352 0.67364,-0.44664 1.37309,-0.6572 2.0971,-0.63016 0.72245,0.01 1.4481,0.32076 2.1781,0.9336 0.46719,0.39226 0.78988,0.82807 0.96711,1.30872 0.16751,0.4725 0.21523,0.9698 0.14341,1.49024 -0.0718,0.52044 -0.24613,1.05364 -0.52314,1.60099 -0.27852,0.52944 -0.63059,1.04739 -1.05553,1.55352 l -4.278,5.09526 -10.36548,-8.70214 5.04963,-6.01584 c 0.30235,-0.36011 0.65372,-0.62063 1.05461,-0.78187 0.40088,-0.16122 0.81424,-0.23797 1.23892,-0.2299 z m -0.0531,3.86006 c -0.0611,-0.007 -0.12102,-0.005 -0.17864,0.001 -0.24093,0.03 -0.43862,0.13802 -0.59387,0.32297 l -1.70433,2.02915 1.59171,1.33574 1.62984,-1.94167 c 0.16344,-0.19466 0.25744,-0.41433 0.28111,-0.65995 0.032,-0.25535 -0.11265,-0.51782 -0.43376,-0.78745 -0.2117,-0.17772 -0.40902,-0.27864 -0.59201,-0.30159 z m 4.01179,2.89853 c -0.2896,-0.011 -0.52484,0.0911 -0.70463,0.30532 l -1.9733,2.35029 1.73779,1.45859 1.88676,-2.24791 c 0.19615,-0.2336 0.28706,-0.48963 0.27181,-0.76793 -0.007,-0.28805 -0.14711,-0.54655 -0.41981,-0.77535 -0.25305,-0.21248 -0.51875,-0.32035 -0.79862,-0.32301 z m -158.887436,-109.56737 -51.249254,61.84079 51.249254,65.25737 -33.82449,0 -51.249344,-64.91572 51.24927,-62.18244 33.82449,0 0,0 z m 111.919631,113.2204 q 0,2.02913 -0.84546,3.50871 -0.84548,1.43729 -2.32504,2.36729 -1.47958,0.93002 -3.46643,1.39504 -1.94459,0.42273 -4.1428,0.42273 l -14.75345,0 0,-30.01416 17.41667,0 q 1.56412,0 2.83234,0.67639 1.26819,0.67637 2.15595,1.77548 0.88772,1.05684 1.35272,2.45186 0.5073,1.35275 0.5073,2.79004 0,2.11368 -1.09911,4.05826 -1.05684,1.9023 -3.2128,2.8746 2.5787,0.7609 4.05826,2.66323 1.52185,1.86002 1.52185,5.03053 z m -8.37014,-1.69093 q 0,-1.09911 -0.59182,-1.81776 -0.59184,-0.76093 -1.52186,-0.76093 l -6.80604,0 0,5.03055 6.51013,0 q 1.01457,0 1.69094,-0.63412 0.71865,-0.63408 0.71865,-1.81774 z m -8.91972,-13.61206 0,4.60781 5.62239,0 q 0.84547,0 1.52184,-0.46501 0.71865,-0.46501 0.71865,-1.86003 0,-1.22593 -0.59183,-1.73321 -0.59182,-0.54956 -1.39502,-0.54956 l -5.87603,0 z m -12.03536,15.81027 0,7.18649 -21.39039,0 0,-30.01416 21.00992,0 0,7.1865 -12.76659,0 0,4.22735 10.90655,0 0,6.67919 -10.90655,0 0,4.73463 13.14706,0 z m -56.50442,-22.82767 7.566946,0 2.620951,9.2579 2.663231,-9.2579 7.566945,0 -4.945994,14.33071 2.155951,6.25648 6.467838,-20.58719 8.961962,0 -11.752014,30.01416 -6.848295,0 -4.269624,-10.73746 -4.227344,10.73746 -6.848296,0 -11.752014,-30.01416 8.919692,0 6.51011,20.58719 2.071394,-6.25648 -4.861439,-14.33071 z m 77.76499,-19.44577 0,7.18647 -21.39037,0 0,-30.01416 21.00991,0 0,7.18651 -12.76658,0 0,4.22734 10.90653,0 0,6.67921 -10.90653,0 0,4.73463 13.14704,0 z m -26.54774,-22.82769 0,30.01416 -8.24332,0 0,-11.75201 -10.06107,0 0,11.75201 -8.243329,0 0,-30.01416 8.243329,0 0,11.07564 10.06107,0 0,-11.07564 8.24332,0 z m -29.508856,7.18651 -8.623782,0 0,22.82765 -8.24332,0 0,-22.82765 -8.66606,0 0,-7.18651 25.533162,0 0,7.18651 z m 72.610951,-26.63229 0,7.18647 -21.390375,0 0,-30.01413 21.00991,0 0,7.18649 -12.76657,0 0,4.22733 10.90654,0 0,6.67921 -10.90654,0 0,4.73463 13.147035,0 z m -51.609295,7.18647 0,-30.01413 11.54065,0 q 3.72005,0 6.55239,1.18366 2.83232,1.18364 4.73463,3.21278 1.9023,2.02912 2.8746,4.7769 0.97228,2.70551 0.97228,5.79147 0,3.42415 -1.0991,6.21419 -1.05685,2.74777 -3.04369,4.73463 -1.98686,1.94458 -4.7769,3.04369 -2.79004,1.05681 -6.21421,1.05681 l -11.54065,0 z m 18.3044,-15.04932 q 0,-1.73322 -0.46501,-3.17052 -0.465,-1.43729 -1.35273,-2.45186 -0.84547,-1.01455 -2.11368,-1.56411 -1.26821,-0.59183 -2.83233,-0.59183 l -3.29734,0 0,15.64117 3.29734,0 q 1.6064,0 2.87461,-0.59182 1.26821,-0.59184 2.11367,-1.64867 0.88775,-1.05684 1.31046,-2.49414 0.46501,-1.43729 0.46501,-3.12822 z m -37.059943,15.30297 q -3.424143,0 -6.214188,-1.31046 -2.790063,-1.31049 -4.776902,-3.42415 -1.986857,-2.15594 -3.085971,-4.90372 -1.099096,-2.74778 -1.099096,-5.66464 0,-2.95915 1.141373,-5.70693 1.141393,-2.74776 3.17051,-4.81916 2.071393,-2.11368 4.861438,-3.33962 2.832322,-1.26819 6.17194,-1.26819 3.424139,0 6.214209,1.31046 2.79004,1.31049 4.77687,3.46644 1.98687,2.15593 3.0437,4.90372 1.0991,2.74777 1.0991,5.62237 0,2.95913 -1.14138,5.70692 -1.14139,2.70548 -3.17051,4.81918 -2.02913,2.07138 -4.86143,3.33958 -2.79005,1.2682 -6.129649,1.2682 z m -6.806023,-15.21844 q 0,1.52185 0.422742,2.95916 0.422723,1.39502 1.268188,2.49413 0.845485,1.09911 2.113673,1.77548 1.310485,0.67638 3.085965,0.67638 1.775486,0 3.085961,-0.67638 1.310487,-0.71864 2.113697,-1.81775 0.84546,-1.14138 1.2259,-2.57869 0.42275,-1.4373 0.42275,-2.91686 0,-1.52185 -0.42275,-2.91687 -0.42273,-1.4373 -1.31046,-2.49413 -0.84547,-1.09912 -2.155955,-1.73322 -1.268202,-0.67637 -3.001415,-0.67637 -1.775486,0 -3.085953,0.67637 -1.268206,0.67638 -2.113691,1.81775 -0.845465,1.09912 -1.268188,2.53641 -0.380464,1.39502 -0.380464,2.87459 z m -37.02028,-0.29591 q 0,-2.74777 1.014558,-5.411 1.056837,-2.66322 3.043694,-4.7769 1.986856,-2.11367 4.819179,-3.42416 2.832324,-1.31046 6.467832,-1.31046 4.354161,0 7.524687,1.81775 3.212769,1.77548 4.776884,4.73464 l -6.298739,4.48097 Q 6.971982,860.10213 6.25335,859.3835 5.57696,858.66486 4.731495,858.24212 3.886029,857.81938 2.956008,857.65027 2.068265,857.48128 1.2228,857.48128 q -1.775486,0 -3.085953,0.71863 -1.268226,0.67638 -2.113673,1.81776 -0.803206,1.09911 -1.225947,2.53642 -0.380446,1.39502 -0.380446,2.79004 0,1.56412 0.465002,3.00141 0.465001,1.4373 1.352744,2.53642 0.887743,1.0991 2.155951,1.77548 1.310484,0.63411 2.916878,0.63411 0.845465,0 1.733208,-0.16901 0.887743,-0.21137 1.690931,-0.63411 0.845465,-0.465 1.479577,-1.14137 0.676372,-0.71865 1.056837,-1.73322 l 6.721481,4.01599 q -0.67639,1.64865 -2.071413,2.95913 -1.352745,1.31048 -3.128231,2.19823 -1.733209,0.88773 -3.762344,1.35274 -1.986838,0.46501 -3.889158,0.46501 -3.339584,0 -6.129647,-1.31048 -2.747765,-1.35276 -4.776902,-3.55097 -1.986838,-2.19822 -3.085952,-4.98826 -1.099114,-2.79006 -1.099114,-5.66465 z" />
      <text
         xml:space="preserve"
         style="font-style:normal;font-weight:normal;font-size:36.99020004px;line-height:125%;font-family:sans-serif;letter-spacing:0px;word-spacing:0px;fill:#000000;fill-opacity:1;stroke:none;stroke-width:1px;stroke-linecap:butt;stroke-linejoin:miter;stroke-opacity:1"
         x="218.17731"
         y="871.43054"
         id="text3409"><tspan
           id="tspan3411"
           x="218.17731"
           y="871.43054"
           style="font-style:normal;font-variant:normal;font-weight:bold;font-stretch:normal;font-family:Montserrat;-inkscape-font-specification:'Montserrat Bold';fill:#ffffff;fill-opacity:1">Web development</tspan><tspan
           x="218.17731"
           y="917.66827"
           id="tspan3413"
           style="font-style:normal;font-variant:normal;font-weight:bold;font-stretch:normal;font-family:Montserrat;-inkscape-font-specification:'Montserrat Bold';fill:#ffffff;fill-opacity:1">explained for</tspan><tspan
           x="218.17731"
           y="963.90607"
           id="tspan3415"
           style="font-style:normal;font-variant:normal;font-weight:bold;font-stretch:normal;font-family:Montserrat;-inkscape-font-specification:'Montserrat Bold';fill:#ffffff;fill-opacity:1">normal people /&gt;</tspan></text>
    </g>
    <text
       id="text4554"
       y="1014.002"
       x="537.04315"
       style="font-style:normal;font-weight:normal;font-size:40px;line-height:125%;font-family:sans-serif;letter-spacing:0px;word-spacing:0px;fill:#000000;fill-opacity:1;stroke:none;stroke-width:1px;stroke-linecap:butt;stroke-linejoin:miter;stroke-opacity:1"
       xml:space="preserve"><tspan
         y="1014.002"
         x="537.04315"
         id="tspan4556" /></text>
  </g>
</svg>
