<?xml version="1.0" encoding="UTF-8" standalone="no"?>
<!-- Created with Inkscape (http://www.inkscape.org/) -->

<svg
   xmlns:dc="http://purl.org/dc/elements/1.1/"
   xmlns:cc="http://creativecommons.org/ns#"
   xmlns:rdf="http://www.w3.org/1999/02/22-rdf-syntax-ns#"
   xmlns:svg="http://www.w3.org/2000/svg"
   xmlns="http://www.w3.org/2000/svg"
   xmlns:xlink="http://www.w3.org/1999/xlink"
   xmlns:sodipodi="http://sodipodi.sourceforge.net/DTD/sodipodi-0.dtd"
   xmlns:inkscape="http://www.inkscape.org/namespaces/inkscape"
   width="260mm"
   height="260mm"
   viewBox="0 0 921.25984 921.25984"
   id="svg2"
   version="1.1"
   inkscape:version="0.91 r13725"
   sodipodi:docname="SpikePie.svg"
   inkscape:export-xdpi="90"
   inkscape:export-ydpi="90">
  <defs
     id="defs4">
    <linearGradient
       id="linearGradient5593"
       inkscape:collect="always">
      <stop
         id="stop4243"
         offset="0"
         style="stop-color:#000000;stop-opacity:1;" />
      <stop
         id="stop4245"
         offset="1"
         style="stop-color:#000000;stop-opacity:0;" />
    </linearGradient>
    <linearGradient
       inkscape:collect="always"
       xlink:href="#linearGradient5593"
       id="linearGradient5599"
       x1="292.49423"
       y1="883.72428"
       x2="909.90555"
       y2="883.72428"
       gradientUnits="userSpaceOnUse" />
    <linearGradient
       inkscape:collect="always"
       xlink:href="#linearGradient5593"
       id="linearGradient5601"
       x1="238.86093"
       y1="568.28721"
       x2="560.51346"
       y2="568.28721"
       gradientUnits="userSpaceOnUse" />
    <linearGradient
       inkscape:collect="always"
       xlink:href="#linearGradient5593"
       id="linearGradient5603"
       x1="19.677965"
       y1="258.7898"
       x2="456.53601"
       y2="258.7898"
       gradientUnits="userSpaceOnUse" />
    <linearGradient
       gradientUnits="userSpaceOnUse"
       y2="883.72428"
       x2="909.90555"
       y1="883.72428"
       x1="292.49423"
       id="linearGradient4190"
       xlink:href="#linearGradient5593"
       inkscape:collect="always" />
    <linearGradient
       gradientUnits="userSpaceOnUse"
       y2="568.28721"
       x2="560.51346"
       y1="568.28721"
       x1="238.86093"
       id="linearGradient4192"
       xlink:href="#linearGradient5593"
       inkscape:collect="always" />
    <linearGradient
       gradientUnits="userSpaceOnUse"
       y2="258.7898"
       x2="456.53601"
       y1="258.7898"
       x1="19.677965"
       id="linearGradient4194"
       xlink:href="#linearGradient5593"
       inkscape:collect="always" />
  </defs>
  <sodipodi:namedview
     id="base"
     pagecolor="#ffffff"
     bordercolor="#666666"
     borderopacity="1.0"
     inkscape:pageopacity="0.0"
     inkscape:pageshadow="2"
     inkscape:zoom="0.45254834"
     inkscape:cx="307.64536"
     inkscape:cy="383.06286"
     inkscape:document-units="px"
     inkscape:current-layer="layer1"
     showgrid="false"
     units="mm"
     inkscape:window-width="1280"
     inkscape:window-height="972"
     inkscape:window-x="-8"
     inkscape:window-y="-8"
     inkscape:window-maximized="1"
     inkscape:snap-midpoints="true"
     inkscape:snap-smooth-nodes="true"
     inkscape:object-nodes="true"
     inkscape:snap-intersection-paths="true"
     inkscape:object-paths="true"
     inkscape:snap-nodes="false" />
  <metadata
     id="metadata7">
    <rdf:RDF>
      <cc:Work
         rdf:about="">
        <dc:format>image/svg+xml</dc:format>
        <dc:type
           rdf:resource="http://purl.org/dc/dcmitype/StillImage" />
        <dc:title />
      </cc:Work>
    </rdf:RDF>
  </metadata>
  <g
     inkscape:label="Layer 1"
     inkscape:groupmode="layer"
     id="layer1"
     transform="translate(0,-131.10236)">
    <rect
       style="opacity:1;fill:#ff4f4f;fill-opacity:1;stroke:none;stroke-width:3;stroke-linecap:butt;stroke-linejoin:miter;stroke-miterlimit:4;stroke-dasharray:none;stroke-opacity:1"
       id="rect4190"
       width="926"
       height="926"
       x="0"
       y="128.3622" />
    <g
       style="font-style:normal;font-weight:normal;font-size:1166.23828125px;line-height:125%;font-family:sans-serif;letter-spacing:0px;word-spacing:0px;fill:#000000;fill-opacity:1;stroke:none;stroke-width:1px;stroke-linecap:butt;stroke-linejoin:miter;stroke-opacity:1"
       id="text4192">
      <path
         d="m 786.79919,772.86968 c 0,33.02823 -7.78251,65.67683 -23.34754,97.94579 -15.18539,32.26897 -36.63476,59.60268 -64.34811,82.00113 -30.37079,24.29663 -65.86665,43.27837 -106.48758,56.9452 -40.24129,13.6669 -88.83455,20.5003 -145.77978,20.5003 -61.12121,0 -116.16827,-5.6945 -165.14116,-17.0836 -48.59327,-11.389 -98.13562,-28.28275 -148.62705,-50.68121 l 6.25,-39.66167 7.97233,0 c 155.50978,36.48993 -0.13453,1.27351 154.98809,36.49984 0,0 -0.15171,1.83235 147.9064,-4.52869 69.78843,-2.99833 41.93089,-103.0184 80.65365,-129.21321 39.10239,-26.1948 138.65358,6.87879 138.65358,-36.77922 0,-37.58385 -9.30105,-65.29719 -27.90316,-83.14003 -18.22247,-17.84284 -30.50063,-58.26201 -68.08448,-68.13252 -28.47262,-7.59269 -78.16286,-23.23167 -111.57073,-28.16692 -33.02823,-4.93525 -50.95696,-11.19923 -88.16117,-18.79193 -75.1677,-15.94466 -145.03652,-7.15105 -181.48147,-45.49417 -36.06531,-38.72276 -54.09797,-89.02438 -54.09797,-150.90486 0,-70.99172 29.99115,-129.07585 89.97346,-174.2524 59.98231,-45.55618 136.0991,-68.33427 228.35037,-68.33427 59.60267,0 114.27009,5.69452 164.00226,17.08357 49.73217,11.38904 93.76981,25.43553 132.11293,42.13946 l -1.10485,33.26252 -7.97233,0 c -112.92334,-17.94245 -1.80822,-1.49517 -113.95247,-19.338 -128.95211,-5.72247 3.31864,-1.49694 -134.59249,-7.02121 -60.31358,-2.41597 -66.01771,109.77795 -102.84229,134.83385 -36.44495,25.0559 -136.66742,-8.67514 -136.66742,30.80689 0,35.30604 9.11124,63.01938 27.33371,83.14003 18.22247,20.12065 48.73912,77.68336 94.67494,88.31314 24.29663,5.31489 61.9684,16.45618 106.76531,24.04887 44.79691,7.5927 76.5104,16.93772 107.64046,24.91005 63.01939,16.70393 115.16124,-6.48785 147.05057,27.29965 31.88933,33.7875 47.83399,81.05204 47.83399,141.79362 z"
         id="path4197"
         inkscape:connector-curvature="0"
         sodipodi:nodetypes="scccsccccsscscccccscssccccscsscscss"
         style="fill:#ffffff;fill-opacity:1" />
    </g>
    <g
       id="g4283">
      <path
         d="m 868.84181,405.51958 c 0,15.41767 -10.9875,46.26952 -16.4382,59.50692 -15.61881,35.75697 -5.08644,24.09343 -30.42941,48.81024 -16.35207,5.9179 -36.98683,8.87684 -61.90429,8.87684 l -46.25301,0 0,129.6486 -18.71246,0 c -32.5659,-110.65332 -48.72247,-223.24507 9.63919,-347.83202 l 57.19508,0 c 20.86836,0 38.54418,1.79095 53.02745,5.37282 37.43812,32.30096 18.74442,13.03052 36.01126,41.26127 7.3195,13.23739 17.86439,34.10989 17.86439,54.35533 z m -21.87229,5.29908 c 0,-11.99152 -2.10241,-22.42571 -6.30724,-31.30255 -4.20482,-8.87685 -10.58991,-16.11847 -19.15528,-21.7249 -65.189,-38.1946 3.15621,1.60667 -65.79912,-37.89151 l -41.89098,24.34265 0,138.99264 37.06397,18.50041 c 74.66461,-39.52994 0.61818,-0.35674 75.99895,-39.5245 7.3195,-7.47523 12.45872,-15.3398 15.41767,-23.59371 3.11468,-8.2539 4.67203,-17.52008 4.67203,-27.79853 z"
         id="path4249"
         inkscape:connector-curvature="0"
         sodipodi:nodetypes="sccsccccsccssscccccccs"
         style="font-style:normal;font-weight:normal;font-size:medium;line-height:125%;font-family:sans-serif;letter-spacing:0px;word-spacing:0px;fill:#ffffff;fill-opacity:1;stroke:none;stroke-width:1px;stroke-linecap:butt;stroke-linejoin:miter;stroke-opacity:1" />
      <path
         style="font-style:normal;font-weight:normal;font-size:383.85491943px;line-height:125%;font-family:sans-serif;letter-spacing:0px;word-spacing:0px;fill:none;fill-opacity:1;stroke:#ffffff;stroke-width:2.5;stroke-linecap:butt;stroke-linejoin:miter;stroke-miterlimit:4;stroke-dasharray:none;stroke-opacity:1"
         d="m 832.32708,410.78835 c 0,-9.5543 -1.6751,-17.8678 -5.02529,-24.94047 -3.3502,-7.07267 -8.43756,-12.84247 -15.26209,-17.30942 -51.93967,-30.43175 2.51472,1.28012 -52.42577,-30.19026 l -33.37689,19.39513 0,110.74311 29.53095,14.74029 c 59.48941,-31.49568 0.49248,-0.28423 60.55252,-31.49135 5.83185,-5.95592 9.92653,-12.22206 12.28413,-18.79841 2.48166,-6.57633 3.72244,-13.95921 3.72244,-22.14862 z"
         id="path4249-0"
         inkscape:connector-curvature="0"
         sodipodi:nodetypes="sscccccccs" />
      <path
         style="font-style:normal;font-weight:normal;font-size:383.85491943px;line-height:125%;font-family:sans-serif;letter-spacing:0px;word-spacing:0px;fill:none;fill-opacity:1;stroke:#ffffff;stroke-width:2.5;stroke-linecap:butt;stroke-linejoin:miter;stroke-miterlimit:4;stroke-dasharray:none;stroke-opacity:1"
         d="m 814.13303,410.17782 c 0,-6.57958 -1.15355,-12.30468 -3.46064,-17.17529 -2.30715,-4.87061 -5.81056,-8.84398 -10.51029,-11.92016 -35.76833,-20.95687 1.73177,0.88156 -36.10309,-20.79057 l -22.98504,13.35649 0,76.26341 20.33653,10.15093 c 40.96748,-21.68956 0.33916,-0.19574 41.69959,-21.68658 4.01612,-4.10155 6.83592,-8.41673 8.45955,-12.94554 1.70893,-4.5288 2.56339,-9.61303 2.56339,-15.25269 z"
         id="path4249-0-4"
         inkscape:connector-curvature="0"
         sodipodi:nodetypes="sscccccccs" />
    </g>
  </g>
</svg>
